<svg width="78" height="78" viewBox="0 0 78 78" fill="none" xmlns="http://www.w3.org/2000/svg">
<g clip-path="url(#clip0_101_2)">
<path d="M19.9666 65.533L10.217 75.2828C9.59367 75.9062 9.59367 76.9131 10.217 77.5365C10.5367 77.8402 10.9363 78 11.3519 78C11.7515 78 12.167 77.8402 12.4707 77.5365L22.2202 67.7866C22.8436 67.1633 22.8436 66.1563 22.2202 65.533C21.5969 64.9096 20.5898 64.9096 19.9666 65.533Z" fill="white"/>
<path d="M12.4706 55.7831C11.8472 55.1597 10.8404 55.1597 10.217 55.7831L0.46752 65.533C-0.15584 66.1563 -0.15584 67.1633 0.46752 67.7866C0.787193 68.0903 1.18678 68.2502 1.60236 68.2502C2.01793 68.2502 2.41752 68.0903 2.72121 67.7866L12.4707 58.0368C13.0939 57.4134 13.0939 56.4065 12.4706 55.7831Z" fill="white"/>
<path d="M77.5365 0.464484C77.2328 0.160796 76.8172 -0.0150181 76.3857 0.000965532C76.1459 0.000965532 70.3282 0.0808815 62.6724 1.96695C55.56 3.70916 45.4908 7.40137 37.8831 15.0893C34.0632 18.9094 31.2342 23.3207 29.1245 27.6523H9.76951C9.08222 27.6523 8.47484 28.0998 8.25107 28.7392L3.37639 43.364C3.21655 43.8435 3.29647 44.387 3.60016 44.8025C3.90385 45.2181 4.38336 45.4738 4.89483 45.4738H23.6107C22.8275 50.221 22.7795 53.4335 22.7795 53.6093C22.7795 54.0409 22.9394 54.4565 23.2431 54.7602C23.5467 55.0638 23.9463 55.2237 24.3779 55.2237H24.3939C24.5697 55.2237 27.7822 55.1757 32.529 54.3925V73.109C32.529 73.6205 32.7688 74.1 33.2004 74.4037C33.4721 74.5955 33.8077 74.7074 34.1274 74.7074C34.3032 74.7074 34.4631 74.6754 34.6389 74.6275L49.2631 69.7525C49.9184 69.5287 50.35 68.9213 50.35 68.234V48.8782C54.6814 46.7843 59.0925 43.9552 62.9124 40.1353C70.6002 32.5113 74.2921 22.4416 76.0343 15.3451C77.9201 7.68907 78 1.87104 78 1.63129C78 1.18374 77.8402 0.768173 77.5365 0.464484ZM24.2339 42.2771H7.11639L10.9203 30.849H27.7023C26.3597 34.1097 25.4168 37.2263 24.7615 39.9275C24.5695 40.7267 24.3937 41.5099 24.2339 42.2771ZM47.1532 67.0834L35.7256 70.8875V53.7852C36.4928 53.6253 37.26 53.4495 38.075 53.2577C40.7761 52.6024 43.8928 51.6434 47.1532 50.3167V67.0834ZM72.9175 14.6578C71.2714 21.3388 67.8031 30.7851 60.6588 37.8656C53.5144 45.0102 44.0686 48.4786 37.4037 50.1249C32.4811 51.3397 28.2935 51.7712 26.088 51.9311C26.4716 46.4487 28.6132 28.883 40.1529 17.343C47.2333 10.1985 56.6792 6.73006 63.36 5.08375C68.2986 3.869 72.5021 3.42146 74.7237 3.2776C74.5637 5.49933 74.1321 9.70285 72.9175 14.6578Z" fill="white"/>
<path d="M50.4457 19.5008C50.4457 23.9442 54.0578 27.5564 58.501 27.5564C62.9283 27.5564 66.5562 23.9441 66.5562 19.5008C66.5562 15.0575 62.9441 11.4452 58.501 11.4452C54.0578 11.4452 50.4457 15.0574 50.4457 19.5008ZM63.3598 19.5008C63.3598 22.1381 61.1383 24.3598 58.5011 24.3598C55.864 24.3598 53.6424 22.1381 53.6424 19.5008C53.6424 16.8635 55.864 14.6418 58.5011 14.6418C61.1221 14.6418 63.3598 16.8795 63.3598 19.5008Z" fill="white"/>
</g>
<defs>
<clipPath id="clip0_101_2">
<rect width="78" height="78" fill="white"/>
</clipPath>
</defs>
</svg>
